<?xml version="1.0" encoding="UTF-8" standalone="no"?>
<!-- Created with Inkscape (http://www.inkscape.org/) -->

<svg
   xmlns:dc="http://purl.org/dc/elements/1.1/"
   xmlns:cc="http://creativecommons.org/ns#"
   xmlns:rdf="http://www.w3.org/1999/02/22-rdf-syntax-ns#"
   xmlns:svg="http://www.w3.org/2000/svg"
   xmlns="http://www.w3.org/2000/svg"
   xmlns:xlink="http://www.w3.org/1999/xlink"
   xmlns:sodipodi="http://sodipodi.sourceforge.net/DTD/sodipodi-0.dtd"
   xmlns:inkscape="http://www.inkscape.org/namespaces/inkscape"
   version="1.1"
   id="svg1238"
   width="192"
   height="192"
   viewBox="0 0 192 192"
   sodipodi:docname="android_round_icon_template.svg"
   inkscape:version="0.92.4 (5da689c313, 2019-01-14)"
   inkscape:export-filename="/home/benjamin/Work/OpenLink/OpenLink/android/res/mipmap-xxxhdpi/ic_launcher_round.png"
   inkscape:export-xdpi="48"
   inkscape:export-ydpi="48">
  <metadata
     id="metadata1244">
    <rdf:RDF>
      <cc:Work
         rdf:about="">
        <dc:format>image/svg+xml</dc:format>
        <dc:type
           rdf:resource="http://purl.org/dc/dcmitype/StillImage" />
        <dc:title></dc:title>
      </cc:Work>
    </rdf:RDF>
  </metadata>
  <defs
     id="defs1242">
    <linearGradient
       inkscape:collect="always"
       id="linearGradient2506">
      <stop
         style="stop-color:#00a5ff;stop-opacity:1;"
         offset="0"
         id="stop2502" />
      <stop
         style="stop-color:#005dff;stop-opacity:1"
         offset="1"
         id="stop2504" />
    </linearGradient>
    <linearGradient
       inkscape:collect="always"
       xlink:href="#linearGradient2506"
       id="linearGradient2508"
       x1="95"
       y1="87"
       x2="160"
       y2="162"
       gradientUnits="userSpaceOnUse" />
  </defs>
  <sodipodi:namedview
     pagecolor="#ffffff"
     bordercolor="#666666"
     borderopacity="1"
     objecttolerance="10"
     gridtolerance="10"
     guidetolerance="10"
     inkscape:pageopacity="0"
     inkscape:pageshadow="2"
     inkscape:window-width="2560"
     inkscape:window-height="1376"
     id="namedview1240"
     showgrid="true"
     inkscape:zoom="3.4766083"
     inkscape:cx="181.45008"
     inkscape:cy="41.367453"
     inkscape:window-x="0"
     inkscape:window-y="27"
     inkscape:window-maximized="1"
     inkscape:current-layer="layer3">
    <inkscape:grid
       type="xygrid"
       id="grid2485" />
  </sodipodi:namedview>
  <g
     inkscape:groupmode="layer"
     id="layer2"
     inkscape:label="Layer 1"
     style="display:inline"
     sodipodi:insensitive="true">
    <circle
       style="opacity:1;fill:url(#linearGradient2508);fill-opacity:1;stroke:#00beff;stroke-width:3.4410336;stroke-linecap:round;stroke-linejoin:round;stroke-miterlimit:4;stroke-dasharray:none;stroke-dashoffset:0;stroke-opacity:1;paint-order:stroke markers fill"
       id="path1791"
       cx="97.627113"
       cy="96.81356"
       r="89.25399" />
  </g>
  <g
     inkscape:groupmode="layer"
     id="layer3"
     inkscape:label="Layer 2">
    <path
       style="opacity:1;fill:#ffffff;fill-opacity:1;stroke:#00ebff;stroke-width:2.50688291;stroke-linecap:round;stroke-linejoin:round;stroke-miterlimit:4;stroke-dasharray:none;stroke-dashoffset:0;stroke-opacity:1;paint-order:stroke markers fill"
       d="M 75.044956,152.27652 C 64.698009,150.02573 56.353371,142.89417 51.637139,132.27157 L 49.914131,128.39076 49.716274,99.040644 49.518415,69.690531 h 6.664832 6.664832 l 0.0065,27.691916 0.0065,27.691913 1.596898,3.42976 c 2.118272,4.54961 6.265352,8.46597 10.735897,10.13861 3.334158,1.24748 5.113834,1.35542 22.346058,1.35542 H 116.2633 l 6.88831,3.97968 c 3.78856,2.18882 7.14163,3.97967 7.45126,3.97967 0.30964,0 0.56297,0.24745 0.56297,0.5499 0,0.89492 -6.01973,3.39559 -9.87391,4.10174 -5.44649,0.9979 -41.316494,0.73993 -46.246973,-0.33262 z"
       id="path2432"
       inkscape:connector-curvature="0" />
    <path
       style="opacity:1;fill:#00ebff;fill-opacity:1;stroke:#fff9ff;stroke-width:2.50688291;stroke-linecap:round;stroke-linejoin:round;stroke-miterlimit:4;stroke-dasharray:none;stroke-dashoffset:0;stroke-opacity:1;paint-order:stroke markers fill"
       d="m 135,107 -0.18612,-38.967666 -1.62733,-3.282284 c -2.00492,-4.043866 -5.67732,-7.688372 -9.82338,-9.748736 -3.1374,-1.559126 -3.18263,-1.561554 -35.247393,-1.892768 l -32.105969,-0.33164 4.053335,-3.751932 c 4.666033,-4.319068 9.646981,-6.887997 15.942355,-8.222284 6.344217,-1.34464 39.096812,-1.315947 45.542802,0.0399 13.30045,2.797605 23.12662,12.728135 25.91958,26.194826 0.86181,4.155376 0.99175,9.452992 0.78916,32.169046 -0.23276,26.093958 -0.30177,27.353368 -1.70554,31.121128 -0.80462,2.15968 -2.25303,5.27485 -3.21868,6.92259 -1.88711,3.22009 -6.67235,8.71747 -7.5882,8.71747 -0.30718,0 -0.64226,-17.53542 -0.74462,-38.96765 z"
       id="path2434"
       inkscape:connector-curvature="0" />
  </g>
</svg>
