<?xml version="1.0" encoding="UTF-8"?>
<svg width="1125px" height="769px" viewBox="0 0 1125 769" version="1.1" xmlns="http://www.w3.org/2000/svg" xmlns:xlink="http://www.w3.org/1999/xlink">
    <!-- Generator: Sketch 57.1 (83088) - https://sketch.com -->
    <title>bg-login</title>
    <desc>Created with Sketch.</desc>
    <g id="Main" stroke="none" stroke-width="1" fill="none" fill-rule="evenodd">
        <g id="Signin" transform="translate(0.000000, -1657.000000)">
            <g id="bg-login" transform="translate(-314.000000, 1077.000000)">
                <path d="M553.375664,206 L1823,206 L1823,1621.53906 C1592.52626,1857.73225 1402.80718,1945.51387 1253.84276,1884.88394 C745.328591,1677.91385 207.014689,2771.40564 147.179199,2679.50155 C-7.62538753,2441.73005 322.200444,2504.40507 206.191688,2504.40507 C62.5401174,2504.40507 110.431075,2549.05819 349.864561,2638.36443 L553.375664,206 Z" id="Rectangle-Copy" fill="#0091FF" transform="translate(964.000000, 1445.500000) rotate(-175.000000) translate(-964.000000, -1445.500000) "></path>
                <path d="M553.375664,155 L1823,155 L1823,1570.53906 C1592.52626,1806.73225 1402.80718,1894.51387 1253.84276,1833.88394 C745.328591,1626.91385 207.014689,2720.40564 147.179199,2628.50155 C-7.62538753,2390.73005 322.200444,2453.40507 206.191688,2453.40507 C62.5401174,2453.40507 110.431075,2498.05819 349.864561,2587.36443 L553.375664,155 Z" id="Rectangle-Copy-3" fill="#5BB3F5" opacity="0.488513765" transform="translate(964.000000, 1394.500000) rotate(-175.000000) translate(-964.000000, -1394.500000) "></path>
                <path d="M553.375664,110 L1823,110 L1823,1525.53906 C1592.52626,1761.73225 1402.80718,1849.51387 1253.84276,1788.88394 C745.328591,1581.91385 207.014689,2675.40564 147.179199,2583.50155 C-7.62538753,2345.73005 322.200444,2408.40507 206.191688,2408.40507 C62.5401174,2408.40507 110.431075,2453.05819 349.864561,2542.36443 L553.375664,110 Z" id="Rectangle-Copy-4" fill="#5BB3F5" opacity="0.488513765" transform="translate(964.000000, 1349.500000) rotate(-175.000000) translate(-964.000000, -1349.500000) "></path>
                <path d="M553.375664,71 L1823,71 L1823,1486.53906 C1592.52626,1722.73225 1402.80718,1810.51387 1253.84276,1749.88394 C745.328591,1542.91385 207.014689,2636.40564 147.179199,2544.50155 C-7.62538753,2306.73005 322.200444,2369.40507 206.191688,2369.40507 C62.5401174,2369.40507 110.431075,2414.05819 349.864561,2503.36443 L553.375664,71 Z" id="Rectangle-Copy-5" fill="#5BB3F5" opacity="0.488513765" transform="translate(964.000000, 1310.500000) rotate(-175.000000) translate(-964.000000, -1310.500000) "></path>
                <path d="M553.375664,252 L1823,252 L1823,1667.53906 C1592.52626,1903.73225 1402.80718,1991.51387 1253.84276,1930.88394 C745.328591,1723.91385 207.014689,2817.40564 147.179199,2725.50155 C-7.62538753,2487.73005 322.200444,2550.40507 206.191688,2550.40507 C62.5401174,2550.40507 110.431075,2595.05819 349.864561,2684.36443 L553.375664,252 Z" id="Rectangle-Copy-2" fill="#5BB3F5" style="mix-blend-mode: darken;" transform="translate(964.000000, 1491.500000) rotate(-175.000000) translate(-964.000000, -1491.500000) "></path>
            </g>
        </g>
    </g>
</svg>