<?xml version="1.0" encoding="UTF-8" standalone="no"?>
<svg
   xmlns:dc="http://purl.org/dc/elements/1.1/"
   xmlns:cc="http://creativecommons.org/ns#"
   xmlns:rdf="http://www.w3.org/1999/02/22-rdf-syntax-ns#"
   xmlns:svg="http://www.w3.org/2000/svg"
   xmlns="http://www.w3.org/2000/svg"
   xmlns:sodipodi="http://sodipodi.sourceforge.net/DTD/sodipodi-0.dtd"
   xmlns:inkscape="http://www.inkscape.org/namespaces/inkscape"
   width="93px"
   height="95px"
   viewBox="0 0 93 95"
   version="1.1"
   id="svg11"
   sodipodi:docname="icon-chat.svg"
   inkscape:version="0.92.4 (5da689c313, 2019-01-14)"
   inkscape:export-filename="/home/benjamin/Work/OpenLink/OpenLink/img/icon-chat.png"
   inkscape:export-xdpi="96"
   inkscape:export-ydpi="96">
  <metadata
     id="metadata17">
    <rdf:RDF>
      <cc:Work
         rdf:about="">
        <dc:format>image/svg+xml</dc:format>
        <dc:type
           rdf:resource="http://purl.org/dc/dcmitype/StillImage" />
        <dc:title>icon-chat-group</dc:title>
      </cc:Work>
    </rdf:RDF>
  </metadata>
  <defs
     id="defs15" />
  <sodipodi:namedview
     pagecolor="#ffffff"
     bordercolor="#666666"
     borderopacity="1"
     objecttolerance="10"
     gridtolerance="10"
     guidetolerance="10"
     inkscape:pageopacity="0"
     inkscape:pageshadow="2"
     inkscape:window-width="1739"
     inkscape:window-height="1047"
     id="namedview13"
     showgrid="false"
     inkscape:zoom="2.4842105"
     inkscape:cx="-132.22881"
     inkscape:cy="47.499999"
     inkscape:window-x="0"
     inkscape:window-y="32"
     inkscape:window-maximized="0"
     inkscape:current-layer="svg11" />
  <!-- Generator: Sketch 57.1 (83088) - https://sketch.com -->
  <title
     id="title2">icon-chat-group</title>
  <desc
     id="desc4">Created with Sketch.</desc>
  <g
     id="Main"
     style="fill:#ffffff;fill-opacity:1;fill-rule:evenodd;stroke:none;stroke-width:1"
     transform="translate(-0.40254237,1.2076271)">
    <g
       id="list"
       transform="translate(-646,-2255)"
       style="fill:#ffffff;fill-opacity:1;fill-rule:nonzero">
      <g
         id="icon-chat-group"
         transform="translate(646.45946,2255)"
         style="fill:#ffffff;fill-opacity:1">
        <path
           d="m 84.558743,64.301435 6.307373,18.738033 c 0.757332,2.241649 0.183172,4.718865 -1.483044,6.398598 -1.666216,1.679732 -4.138385,2.273556 -6.38556,1.533836 L 64.200291,84.725891 C 44.994014,93.975734 21.917754,88.021316 9.5826433,70.63278 -2.7524674,53.244244 -0.74913218,29.492621 14.324203,14.416661 29.397538,-0.65929801 53.145026,-2.6629821 70.530534,9.6742768 87.916043,22.011535 93.869424,45.091813 84.621192,64.301435 Z M 26.480952,51.559572 c 3.448976,0 6.244923,-2.796435 6.244923,-6.246011 0,-3.449577 -2.795947,-6.246012 -6.244923,-6.246012 -3.448976,0 -6.244924,2.796435 -6.244924,6.246012 0,3.449576 2.795948,6.246011 6.244924,6.246011 z m 18.734771,0 c 3.448976,0 6.244924,-2.796435 6.244924,-6.246011 0,-3.449577 -2.795948,-6.246012 -6.244924,-6.246012 -3.448976,0 -6.244924,2.796435 -6.244924,6.246012 0,3.449576 2.795948,6.246011 6.244924,6.246011 z m 18.734771,0 c 3.448976,0 6.244924,-2.796435 6.244924,-6.246011 0,-3.449577 -2.795948,-6.246012 -6.244924,-6.246012 -3.448976,0 -6.244924,2.796435 -6.244924,6.246012 0,3.449576 2.795948,6.246011 6.244924,6.246011 z"
           id="Shape"
           style="fill:#ffffff;fill-opacity:1;stroke-width:1.27464426"
           inkscape:connector-curvature="0" />
      </g>
    </g>
  </g>
</svg>
