<?xml version="1.0" encoding="UTF-8"?>
<svg width="92px" height="92px" viewBox="0 0 92 92" version="1.1" xmlns="http://www.w3.org/2000/svg" xmlns:xlink="http://www.w3.org/1999/xlink">
    <!-- Generator: Sketch 57.1 (83088) - https://sketch.com -->
    <title>icon-home</title>
    <desc>Created with Sketch.</desc>
    <g id="Main" stroke="none" stroke-width="1" fill="none" fill-rule="evenodd">
        <g id="list" transform="translate(-101.000000, -2248.000000)" fill="#FFFFFF" fill-rule="nonzero">
            <g id="icon-home" transform="translate(101.000000, 2248.000000)">
                <path d="M32.125,92 L13.625,92 C11.070683,92 9,89.9263715 9,87.3684211 L9,41.0526316 L46,4 L83,41.0526316 L83,87.3684211 C83,89.9263715 80.929317,92 78.375,92 L59.875,92 C57.320683,92 55.25,89.9263715 55.25,87.3684211 L55.25,68.8421053 C55.25,66.2841548 53.179317,64.2105263 50.625,64.2105263 L41.375,64.2105263 C38.820683,64.2105263 36.75,66.2841548 36.75,68.8421053 L36.75,87.3684211 C36.75,89.9263715 34.679317,92 32.125,92 Z M46,50.3157895 C51.1086339,50.3157895 55.25,46.1685324 55.25,41.0526316 C55.25,35.9367307 51.1086339,31.7894737 46,31.7894737 C40.8913661,31.7894737 36.75,35.9367307 36.75,41.0526316 C36.75,46.1685324 40.8913661,50.3157895 46,50.3157895 Z" id="Shape"></path>
                <path d="M46.0460493,11.206989 L7.86823941,49.6315963 C6.70969357,50.8059013 5.01669266,51.2689315 3.42697374,50.8462679 C1.83725483,50.4236043 0.592334048,49.1794595 0.161161029,47.5824909 C-0.270011991,45.9855223 0.178068192,44.2783474 1.3366141,43.1040425 L42.826234,1.34621628 C44.6203034,-0.448738761 47.5177926,-0.448738761 49.3118619,1.34621628 L90.6634897,43.1040425 C92.4544464,44.9193607 92.4441496,47.8522095 90.640491,49.6547437 C88.8368325,51.4572779 85.9228211,51.4469144 84.1318644,49.6315963 L46.0460493,11.206989 Z" id="Path"></path>
            </g>
        </g>
    </g>
</svg>