<?xml version="1.0" encoding="UTF-8"?>
<svg width="92px" height="92px" viewBox="0 0 92 92" version="1.1" xmlns="http://www.w3.org/2000/svg" xmlns:xlink="http://www.w3.org/1999/xlink">
    <!-- Generator: Sketch 57.1 (83088) - https://sketch.com -->
    <title>icon-cog</title>
    <desc>Created with Sketch.</desc>
    <g id="Main" stroke="none" stroke-width="1" fill="none" fill-rule="evenodd">
        <g id="list" transform="translate(-908.000000, -2256.000000)" fill="#FFFFFF" fill-rule="nonzero">
            <g id="icon-cog" transform="translate(908.000000, 2256.000000)">
                <path d="M21.3909465,5.53703704 C25.5082305,3.07613169 30.0041152,1.18312757 34.7839506,0 C36.4017706,4.81883862 40.9168369,8.06573175 46,8.06573175 C51.0831631,8.06573175 55.5982294,4.81883862 57.2160494,0 C61.9958848,1.18312757 66.4917695,3.07613169 70.5617284,5.53703704 C68.2496141,10.1004351 69.132329,15.6329666 72.7496812,19.2503188 C76.3670334,22.867671 81.8995649,23.7503859 86.462963,21.4382716 C88.9238683,25.5082305 90.8168724,29.9567901 92,34.7839506 C87.1811614,36.4017706 83.9342683,40.9168369 83.9342683,46 C83.9342683,51.0831631 87.1811614,55.5982294 92,57.2160494 C90.8168724,61.9958848 88.9238683,66.4917695 86.462963,70.5617284 C81.8995649,68.2496141 76.3670334,69.132329 72.7496812,72.7496812 C69.132329,76.3670334 68.2496141,81.8995649 70.5617284,86.462963 C66.4917695,88.9238683 62.0432099,90.8168724 57.2160494,92 C55.5982294,87.1811614 51.0831631,83.9342683 46,83.9342683 C40.9168369,83.9342683 36.4017706,87.1811614 34.7839506,92 C30.0041152,90.8168724 25.5082305,88.9238683 21.4382716,86.462963 C23.7503859,81.8995649 22.867671,76.3670334 19.2503188,72.7496812 C15.6329666,69.132329 10.1004351,68.2496141 5.53703704,70.5617284 C3.01510486,66.4248553 1.14739977,61.9232072 0,57.2160494 C4.81883862,55.5982294 8.06573175,51.0831631 8.06573175,46 C8.06573175,40.9168369 4.81883862,36.4017706 0,34.7839506 C1.18312757,30.0041152 3.07613169,25.5082305 5.53703704,21.4382716 C10.1004351,23.7503859 15.6329666,22.867671 19.2503188,19.2503188 C22.867671,15.6329666 23.7503859,10.1004351 21.4382716,5.53703704 L21.3909465,5.53703704 Z M46,64.9300412 C56.454773,64.9300412 64.9300412,56.454773 64.9300412,46 C64.9300412,35.545227 56.454773,27.0699588 46,27.0699588 C35.545227,27.0699588 27.0699588,35.545227 27.0699588,46 C27.0699588,56.454773 35.545227,64.9300412 46,64.9300412 Z" id="Shape"></path>
                <circle id="Oval" cx="45.4712644" cy="45.4712644" r="9.51724138"></circle>
            </g>
        </g>
    </g>
</svg>