<?xml version="1.0" encoding="UTF-8"?>
<svg width="93px" height="95px" viewBox="0 0 93 95" version="1.1" xmlns="http://www.w3.org/2000/svg" xmlns:xlink="http://www.w3.org/1999/xlink">
    <!-- Generator: Sketch 57.1 (83088) - https://sketch.com -->
    <title>icon-chat-group</title>
    <desc>Created with Sketch.</desc>
    <g id="Main" stroke="none" stroke-width="1" fill="none" fill-rule="evenodd">
        <g id="list" transform="translate(-646.000000, -2255.000000)" fill="#FFFFFF" fill-rule="nonzero">
            <g id="icon-chat-group" transform="translate(646.459459, 2255.000000)">
                <path d="M86.7937065,49.1833414 L91.7420462,63.8839394 C92.3361982,65.6425861 91.8857508,67.5860433 90.5785502,68.9038479 C89.2713496,70.2216526 87.3318522,70.6875274 85.5688699,70.1071926 L70.8218376,65.2069933 C55.7538873,72.4637963 37.6498091,67.7923615 27.9725124,54.1504883 C18.2952158,40.5086151 19.8668976,21.8746928 31.6924205,10.0471108 C43.5179434,-1.7804712 62.1486216,-3.3524267 75.7881198,6.32655503 C89.427618,16.0055368 94.0982396,34.1127673 86.8426999,49.1833414 L86.7937065,49.1833414 Z M41.2297862,39.1869347 C43.9356204,39.1869347 46.1291325,36.9930407 46.1291325,34.2867353 C46.1291325,31.5804299 43.9356204,29.386536 41.2297862,29.386536 C38.523952,29.386536 36.33044,31.5804299 36.33044,34.2867353 C36.33044,36.9930407 38.523952,39.1869347 41.2297862,39.1869347 Z M55.927825,39.1869347 C58.6336592,39.1869347 60.8271713,36.9930407 60.8271713,34.2867353 C60.8271713,31.5804299 58.6336592,29.386536 55.927825,29.386536 C53.2219908,29.386536 51.0284787,31.5804299 51.0284787,34.2867353 C51.0284787,36.9930407 53.2219908,39.1869347 55.927825,39.1869347 Z M70.6258638,39.1869347 C73.331698,39.1869347 75.5252101,36.9930407 75.5252101,34.2867353 C75.5252101,31.5804299 73.331698,29.386536 70.6258638,29.386536 C67.9200296,29.386536 65.7265175,31.5804299 65.7265175,34.2867353 C65.7265175,36.9930407 67.9200296,39.1869347 70.6258638,39.1869347 Z" id="Shape"></path>
                <path d="M64.9411765,77.410886 C55.5342953,91.794626 36.7793868,96.9971024 21.1897641,89.5472123 L6.47516353,94.4502881 C4.71484175,95.0390052 2.76953336,94.5926782 1.45047351,93.297435 C0.131413653,92.0021917 -0.334904908,90.0804355 0.245982621,88.3335797 L5.15084948,73.7214428 C-1.17454434,60.8233778 1.399856,45.3798931 11.5762251,35.1764706 C11.7252905,48.2792372 17.8084023,60.6239726 28.1485439,68.8074305 C38.4886854,76.9908884 51.9939589,80.1489125 64.9411765,77.410886 L64.9411765,77.410886 Z" id="Path"></path>
            </g>
        </g>
    </g>
</svg>