<?xml version="1.0" encoding="UTF-8"?>
<svg width="87px" height="73px" viewBox="0 0 87 73" version="1.1" xmlns="http://www.w3.org/2000/svg" xmlns:xlink="http://www.w3.org/1999/xlink">
    <!-- Generator: Sketch 57.1 (83088) - https://sketch.com -->
    <title>left-arrow</title>
    <desc>Created with Sketch.</desc>
    <g id="Main" stroke="none" stroke-width="1" fill="none" fill-rule="evenodd">
        <g id="Signin" transform="translate(-103.000000, -124.000000)" fill="#5BB3F5" fill-rule="nonzero">
            <path d="M127.700992,152.797547 L182.747496,152.797547 C186.752943,152.797547 190,156.067164 190,160.100441 C190,164.133719 186.752943,167.403336 182.747496,167.403336 L127.700992,167.403336 L144.381751,184.199994 C146.43781,185.999783 147.318767,188.808014 146.662552,191.470522 C146.006338,194.13303 143.923657,196.200643 141.27048,196.823587 C138.617302,197.44653 135.841224,196.519711 134.083195,194.424046 L105.07318,165.212468 C102.30894,162.372784 102.30894,157.828098 105.07318,154.988415 L134.083195,125.776836 C136.943028,123.273457 141.234732,123.408988 143.933161,126.087895 C146.631589,128.766802 146.827043,133.085968 144.381751,136.000889 L127.628467,152.797547 L127.700992,152.797547 Z" id="left-arrow"></path>
        </g>
    </g>
</svg>