<?xml version="1.0" encoding="UTF-8"?>
<svg width="647px" height="138px" viewBox="0 0 647 138" version="1.1" xmlns="http://www.w3.org/2000/svg" xmlns:xlink="http://www.w3.org/1999/xlink">
    <!-- Generator: Sketch 57.1 (83088) - https://sketch.com -->
    <title>logo</title>
    <desc>Created with Sketch.</desc>
    <g id="Main" stroke="none" stroke-width="1" fill="none" fill-rule="evenodd">
        <g id="Splash-1" transform="translate(-238.000000, -446.000000)" fill="#FFFFFF">
            <g id="logo" transform="translate(208.000000, 448.000000)">
                <path d="M188.450001,45.7 C188.450001,25.4 203.750001,11.2 224.150001,11.2 C244.550001,11.2 259.750001,25.4 259.750001,45.7 C259.750001,66 244.550001,80.2 224.150001,80.2 C203.750001,80.2 188.450001,66 188.450001,45.7 Z M242.250001,45.7 C242.250001,34.8 235.150001,26.4 224.150001,26.4 C213.050001,26.4 205.950001,34.8 205.950001,45.7 C205.950001,56.5 213.050001,65 224.150001,65 C235.150001,65 242.250001,56.5 242.250001,45.7 Z M267.7,79 L267.7,12.3 L301.1,12.3 C316.1,12.3 324.3,22.4 324.3,34.5 C324.3,46.5 316.1,56.4 301.1,56.4 L284.9,56.4 L284.9,79 L267.7,79 Z M306.8,34.4 C306.8,29.8 303.4,26.8 298.8,26.8 L284.9,26.8 L284.9,41.8 L298.8,41.8 C303.4,41.8 306.8,38.9 306.8,34.4 Z M331.25,79 L331.25,12.3 L380.15,12.3 L380.15,26.8 L348.45,26.8 L348.45,37.9 L379.45,37.9 L379.45,52.5 L348.45,52.5 L348.45,64.5 L380.15,64.5 L380.15,79 L331.25,79 Z M434.8,79 L406.6,38.7 L406.6,79 L389.4,79 L389.4,12.3 L407.1,12.3 L434.1,50.7 L434.1,12.3 L451.4,12.3 L451.4,79 L434.8,79 Z M462.65,79 L462.65,12.3 L479.85,12.3 L479.85,64 L506.65,64 L506.65,79 L462.65,79 Z M514.8,79 L514.8,12.3 L532,12.3 L532,79 L514.8,79 Z M588.65,79 L560.45,38.7 L560.45,79 L543.25,79 L543.25,12.3 L560.95,12.3 L587.95,50.7 L587.95,12.3 L605.25,12.3 L605.25,79 L588.65,79 Z M655.7,79 L638.2,53.9 L633.7,59.5 L633.7,79 L616.5,79 L616.5,12.3 L633.7,12.3 L633.7,39.7 L654.2,12.3 L675.4,12.3 L649.5,43.5 L676.8,79 L655.7,79 Z" id="OPENLINK" fill-rule="nonzero"></path>
                <g id="icon-link" transform="translate(93.500000, 67.000000) scale(1, -1) rotate(-270.000000) translate(-93.500000, -67.000000) translate(27.000000, 6.000000)" fill-rule="nonzero" stroke="#FFFFFF" stroke-width="5">
                    <path d="M116.291874,68.1832485 L116.159393,67.9832486 C114.366802,64.7615876 115.508588,60.687379 118.709643,58.8832489 C121.910698,57.0791188 125.958848,58.2282546 127.751439,61.4499155 C134.791546,73.8319279 134.746463,89.0503776 127.63312,101.38992 C120.519776,113.729462 107.414972,121.322172 93.2402624,121.316583 L66.7441574,121.316583 C44.7940654,121.316583 27,103.407971 27,81.3165829 C27,59.2251922 44.7940654,41.3165829 66.7441574,41.3165829 L73.3681837,41.3165829 C77.0265323,41.3165829 79.9922099,44.3013511 79.9922099,47.9832493 C79.9922099,51.6651475 77.0265323,54.6499157 73.3681837,54.6499157 L66.7441574,54.6499157 C52.1107627,54.6499157 40.2480525,66.5889886 40.2480525,81.3165829 C40.2480525,96.0441741 52.1107627,107.983247 66.7441574,107.983247 L93.2402624,107.983247 C102.664055,107.980284 111.3771,102.93991 116.122932,94.745944 C120.868764,86.5519785 120.933092,76.4376879 116.291874,68.1832485 L116.291874,68.1832485 Z" id="Path"></path>
                    <path d="M16.7081263,53.4499173 L16.8406068,53.6499173 C18.0002099,55.7339665 17.9670115,58.2823305 16.7535172,60.3350653 C15.5400229,62.3878001 13.3305914,63.6330463 10.9574942,63.6017319 C8.58439692,63.5704174 6.40816385,62.2672996 5.24856093,60.1832504 C-1.79154624,47.8012379 -1.74646261,32.5827882 5.36688049,20.2432459 C12.4802236,7.90370366 25.5850285,0.310993647 39.7597376,0.316582915 L66.2558426,0.316582915 C88.2059346,0.316582915 106,18.2251953 106,40.3165829 C106,62.4079736 88.2059346,80.3165829 66.2558426,80.3165829 L59.6318163,80.3165829 C55.9734677,80.3165829 53.0077901,77.3318147 53.0077901,73.6499165 C53.0077901,69.9680183 55.9734677,66.9832501 59.6318163,66.9832501 L66.2558426,66.9832501 C80.8892373,66.9832501 92.7519475,55.0441772 92.7519475,40.3165829 C92.7519475,25.5889917 80.8892373,13.6499188 66.2558426,13.6499188 L39.7597376,13.6499188 C30.3359454,13.6528819 21.6229001,18.6932563 16.8770681,26.8872218 C12.131236,35.0811874 12.066908,45.1954779 16.7081263,53.4499173 L16.7081263,53.4499173 Z" id="Path"></path>
                </g>
                <text id="----.--.-.--.-.-..-." font-family="AvenirNext-Regular, Avenir Next" font-size="60" font-weight="normal" letter-spacing="-0.450000082">
                    <tspan x="216.140001" y="127">--- .--. . -. .-.. .. -. -.-</tspan>
                </text>
            </g>
        </g>
    </g>
</svg>